<svg width="16" height="20" viewBox="0 0 16 20" fill="none" xmlns="http://www.w3.org/2000/svg">
<g clip-path="url(#clip0_82_6692)">
<path d="M14.4995 3.99898H11.7498V3.74913C11.7498 2.69948 11.39 1.80871 10.6649 1.08495C9.93974 0.35984 9.05033 0 8.00068 0C6.95103 0 6.06569 0.35984 5.34058 1.08495C4.61546 1.81007 4.25019 2.69948 4.25019 3.74913V3.99898H1.50047L0 5.49945V18.4985L1.50047 19.999H14.4995L16 18.4985V5.49945L14.4995 3.99898ZM5.75066 3.74913C5.75066 3.11364 5.97064 2.57863 6.40109 2.14954C6.83154 1.72044 7.37062 1.49911 8.00068 1.49911C8.63074 1.49911 9.17118 1.71366 9.60027 2.14954C10.0348 2.57999 10.2507 3.115 10.2507 3.74913V3.99898H5.75066V3.74913ZM14.4995 18.4985H1.50047V5.49945H4.25019V7.74947C4.25019 7.95994 4.32487 8.13918 4.46474 8.27905C4.6046 8.42434 4.7852 8.49902 4.99975 8.49902C5.21429 8.49902 5.38946 8.42434 5.53475 8.27905C5.68005 8.13918 5.7493 7.95858 5.7493 7.74947V5.49945H10.2493V7.74947C10.2493 7.95994 10.324 8.13918 10.4639 8.27905C10.6038 8.42434 10.7843 8.49902 10.9989 8.49902C11.2134 8.49902 11.3886 8.42434 11.5339 8.27905C11.6792 8.13918 11.7485 7.95858 11.7485 7.74947V5.49945H14.4982V18.4985H14.4995Z" fill="#0B0B0B"/>
</g>
<defs>
<clipPath id="clip0_82_6692">
<rect width="16" height="19.999" fill="white"/>
</clipPath>
</defs>
</svg>
